<?xml version="1.0" standalone="no"?>
<!DOCTYPE svg PUBLIC "-//W3C//DTD SVG 20010904//EN"
 "http://www.w3.org/TR/2001/REC-SVG-20010904/DTD/svg10.dtd">
<svg version="1.0" xmlns="http://www.w3.org/2000/svg"
 width="451.000000pt" height="451.000000pt" viewBox="0 0 451.000000 451.000000"
 preserveAspectRatio="xMidYMid meet">
<metadata>
Created by potrace 1.11, written by Peter Selinger 2001-2013
</metadata>
<g transform="translate(0.000000,451.000000) scale(0.100000,-0.100000)"
fill="#000000" stroke="none">
<path d="M1533 4199 c-2 -23 3 -25 10 -4 4 8 3 16 -1 19 -4 3 -9 -4 -9 -15z"/>
<path d="M1611 4077 c2 -1 13 -9 24 -17 19 -14 19 -14 6 3 -7 9 -18 17 -24 17
-6 0 -8 -1 -6 -3z"/>
<path d="M1695 4041 c-3 -5 -2 -12 3 -15 5 -3 9 1 9 9 0 17 -3 19 -12 6z"/>
<path d="M2665 4029 c-3 -4 2 -6 10 -5 21 3 28 13 10 13 -9 0 -18 -4 -20 -8z"/>
<path d="M2670 4006 c0 -2 8 -10 18 -17 15 -13 16 -12 3 4 -13 16 -21 21 -21
13z"/>
<path d="M1695 3970 c3 -5 8 -10 11 -10 2 0 4 5 4 10 0 6 -5 10 -11 10 -5 0
-7 -4 -4 -10z"/>
<path d="M1713 3935 c0 -8 4 -12 9 -9 5 3 6 10 3 15 -9 13 -12 11 -12 -6z"/>
<path d="M1690 3809 c0 -5 5 -7 10 -4 6 3 10 8 10 11 0 2 -4 4 -10 4 -5 0 -10
-5 -10 -11z"/>
<path d="M1253 3735 c0 -8 4 -12 9 -9 5 3 6 10 3 15 -9 13 -12 11 -12 -6z"/>
<path d="M1189 3713 c-13 -16 -12 -17 4 -4 9 7 17 15 17 17 0 8 -8 3 -21 -13z"/>
<path d="M2755 3711 c-3 -5 -2 -12 3 -15 5 -3 9 1 9 9 0 17 -3 19 -12 6z"/>
<path d="M1561 3681 c-44 -44 -19 -96 60 -125 51 -18 65 -47 48 -95 -9 -25 -8
-24 21 6 28 30 58 94 55 118 -9 64 -53 105 -120 113 -34 3 -47 0 -64 -17z"/>
<path d="M2710 3691 c0 -6 4 -13 10 -16 6 -3 7 1 4 9 -7 18 -14 21 -14 7z"/>
<path d="M1295 3670 c-3 -5 -1 -10 4 -10 6 0 11 5 11 10 0 6 -2 10 -4 10 -3 0
-8 -4 -11 -10z"/>
<path d="M2990 3631 c0 -6 4 -13 10 -16 6 -3 7 1 4 9 -7 18 -14 21 -14 7z"/>
<path d="M895 3623 c-45 -9 -77 -27 -90 -54 -34 -65 -9 -129 75 -190 33 -24
62 -49 65 -57 3 -8 0 -10 -8 -6 -9 5 -9 4 1 -7 16 -17 16 -63 0 -53 -8 5 -9 2
-5 -9 3 -9 0 -23 -8 -31 -8 -7 -11 -16 -8 -20 4 -3 1 -6 -6 -6 -7 0 -9 -5 -5
-12 5 -8 2 -9 -10 -5 -14 6 -15 3 -6 -13 6 -11 13 -20 16 -20 3 0 2 5 -1 10
-3 6 0 10 8 10 8 0 20 7 27 15 7 9 19 14 27 11 9 -4 11 -1 7 6 -5 8 -2 9 10 5
10 -4 15 -3 11 3 -6 10 28 32 39 25 3 -3 4 -2 1 1 -2 4 11 27 30 52 19 25 36
49 36 53 1 5 2 15 3 22 1 6 8 11 16 9 12 -3 13 -1 3 9 -7 7 -13 28 -13 46 0
49 -23 96 -70 141 -42 41 -109 71 -145 65z"/>
<path d="M2890 3530 c0 -5 5 -10 11 -10 5 0 7 5 4 10 -3 6 -8 10 -11 10 -2 0
-4 -4 -4 -10z"/>
<path d="M1226 3432 c-3 -5 1 -9 9 -9 8 0 12 4 9 9 -3 4 -7 8 -9 8 -2 0 -6 -4
-9 -8z"/>
<path d="M2979 3418 c-6 -21 -5 -38 3 -49 8 -11 8 -10 4 5 -5 14 -2 17 11 12
17 -6 17 -5 1 7 -10 8 -15 17 -11 20 3 4 3 7 0 7 -4 0 -7 -1 -8 -2z"/>
<path d="M3113 3395 c0 -8 4 -12 9 -9 5 3 6 10 3 15 -9 13 -12 11 -12 -6z"/>
<path d="M1146 3372 c-3 -5 1 -9 9 -9 8 0 15 4 15 9 0 4 -4 8 -9 8 -6 0 -12
-4 -15 -8z"/>
<path d="M1256 3368 c3 -5 10 -6 15 -3 13 9 11 12 -6 12 -8 0 -12 -4 -9 -9z"/>
<path d="M2131 3371 c-1 -7 -7 -11 -16 -8 -8 4 -16 3 -19 -1 -2 -4 -25 -7 -50
-7 -25 1 -46 -2 -46 -5 0 -3 -15 -5 -32 -5 -18 1 -37 -1 -43 -4 -5 -3 -21 -6
-35 -7 -56 -4 -246 -59 -269 -78 -8 -6 -16 -10 -18 -8 -11 8 -35 -2 -79 -30
-68 -45 -74 -51 -62 -71 7 -13 5 -17 -7 -17 -8 0 -15 -4 -15 -10 0 -5 -8 -10
-19 -10 -10 0 -21 -9 -24 -19 -3 -14 -11 -18 -24 -15 -13 4 -23 -3 -33 -20 -7
-14 -19 -27 -27 -27 -38 -4 -63 -20 -63 -39 0 -21 -16 -35 -24 -22 -10 17 -56
1 -56 -19 0 -10 -9 -33 -19 -50 -30 -49 -121 -139 -141 -139 -11 0 -22 -4 -25
-10 -11 -18 -14 -50 -5 -50 11 0 -55 -136 -70 -145 -6 -4 -8 -10 -5 -15 3 -5
0 -14 -7 -22 -68 -72 -119 -328 -83 -413 5 -11 19 -30 32 -42 44 -42 12 -84
-72 -97 -16 -2 -32 -5 -35 -6 -3 -1 -9 -2 -13 -1 -5 1 -21 -8 -36 -19 -16 -11
-40 -24 -54 -29 -14 -6 -33 -23 -41 -39 -14 -27 -13 -30 10 -55 13 -14 29 -30
36 -34 18 -11 102 -113 116 -140 18 -33 14 -72 -9 -109 -17 -28 -24 -32 -39
-24 -10 6 -20 10 -22 10 -2 0 -4 -56 -5 -124 l-2 -124 -46 -44 c-78 -73 -104
-130 -70 -158 10 -8 14 -24 11 -41 -3 -18 4 -38 20 -61 41 -58 45 -89 19 -144
-15 -30 -22 -61 -20 -86 4 -41 -13 -59 -45 -51 -23 6 -34 -12 -21 -36 14 -25
42 -31 77 -16 28 11 30 10 40 -19 7 -19 19 -32 32 -34 13 -2 35 -27 61 -71 23
-37 52 -76 64 -87 31 -26 115 -66 192 -92 17 -6 39 -14 50 -18 11 -4 22 -8 25
-9 3 -1 19 -7 35 -15 17 -7 59 -12 95 -12 36 0 112 -11 169 -24 57 -14 106
-22 109 -19 3 2 11 0 19 -6 7 -6 13 -9 13 -7 0 3 21 1 48 -4 26 -5 63 -11 82
-14 19 -3 52 -9 73 -14 24 -5 37 -4 37 2 0 7 4 7 13 1 6 -6 19 -10 27 -10 8 0
71 -4 140 -8 162 -10 402 -10 610 0 91 4 237 9 325 11 140 2 260 9 260 13 0 1
18 4 40 6 37 3 61 7 125 20 13 2 42 7 65 10 75 11 152 34 226 68 41 18 89 39
106 46 21 9 44 31 63 63 35 56 39 61 96 123 43 47 75 56 115 35 25 -14 24 -22
-10 -90 -16 -31 -31 -68 -33 -81 -3 -22 0 -24 37 -23 46 1 91 9 120 20 29 12
75 56 69 66 -3 5 -6 41 -5 80 0 39 -4 77 -10 85 -8 9 -7 14 5 19 27 10 18 44
-21 80 -21 18 -41 34 -45 34 -12 0 -9 38 2 45 15 9 7 49 -23 120 -14 33 -23
68 -21 79 2 11 -3 43 -12 73 -14 48 -14 54 0 69 9 8 16 21 17 27 0 7 2 20 4
30 6 30 -57 109 -98 123 -21 7 -44 20 -53 28 -8 9 -22 19 -30 24 -28 16 0 55
60 86 53 27 94 68 91 91 -7 50 -62 160 -89 177 -7 4 -4 9 6 13 15 6 17 18 13
77 -2 39 -9 74 -15 78 -6 4 -13 19 -16 33 -3 21 0 27 13 27 10 0 14 4 8 8 -5
4 -10 14 -10 22 0 8 5 18 10 22 6 5 6 8 -1 8 -12 0 -12 49 0 68 4 7 2 12 -5
12 -8 0 -9 4 0 13 6 8 7 17 2 23 -5 5 -12 27 -15 49 -11 71 -13 79 -29 133 -9
30 -16 57 -15 60 1 4 -5 21 -12 37 -7 17 -14 32 -15 35 -5 17 -68 146 -74 150
-3 3 -14 20 -25 39 -10 19 -35 50 -55 71 -20 20 -56 59 -81 86 -25 27 -55 56
-67 64 -12 8 -23 24 -25 35 -3 23 -58 66 -72 57 -5 -3 -7 2 -3 11 4 10 0 22
-9 29 -8 7 -25 22 -37 33 -12 12 -30 24 -40 28 -9 3 -17 11 -17 17 0 6 -4 8
-10 5 -5 -3 -10 1 -10 10 0 9 -6 15 -12 14 -30 -4 -59 2 -54 10 3 5 -8 11 -24
15 -20 3 -30 12 -30 23 0 15 -2 16 -10 3 -5 -8 -10 -10 -10 -5 0 11 -67 45
-145 73 -31 11 -49 24 -47 32 3 11 0 11 -12 0 -11 -8 -16 -9 -16 -1 0 6 -6 11
-14 11 -8 0 -16 7 -18 16 -2 11 -15 18 -37 19 -18 2 -37 9 -42 16 -7 11 -9 11
-9 1 0 -9 -5 -9 -17 -3 -17 9 -60 21 -93 26 -8 1 -53 8 -100 14 -47 7 -89 13
-95 14 -5 1 -13 7 -17 12 -5 6 -8 4 -8 -5 0 -13 -2 -13 -9 -1 -8 12 -12 12
-24 2 -9 -7 -18 -8 -21 -2 -4 5 -55 9 -116 8 -60 0 -107 -4 -105 -8 7 -10 -29
-6 -36 5 -4 4 -16 3 -27 -3 -15 -8 -22 -8 -25 2 -4 9 -6 8 -6 -2z"/>
<path d="M2910 3371 c0 -10 29 -36 34 -30 1 2 -6 12 -16 22 -10 9 -18 13 -18
8z"/>
<path d="M3057 3373 c-9 -8 12 -33 27 -33 6 0 3 5 -7 11 -9 6 -15 14 -12 20 7
10 2 12 -8 2z"/>
<path d="M1184 3358 c3 -15 26 -23 26 -8 0 6 -4 9 -9 6 -5 -4 -12 -1 -14 4 -3
6 -4 5 -3 -2z"/>
<path d="M3135 3349 c-3 -4 2 -6 10 -5 21 3 28 13 10 13 -9 0 -18 -4 -20 -8z"/>
<path d="M1172 3314 c-1 -13 0 -24 2 -24 7 0 14 40 7 44 -4 3 -8 -6 -9 -20z"/>
<path d="M1242 3327 c-6 -7 -10 -19 -9 -27 3 -19 37 -68 37 -54 0 5 -5 15 -12
22 -16 16 -19 44 -6 59 6 7 8 13 5 13 -2 0 -9 -6 -15 -13z"/>
<path d="M3220 3321 c0 -6 4 -13 10 -16 6 -3 7 1 4 9 -7 18 -14 21 -14 7z"/>
<path d="M1293 3301 c0 -11 5 -18 9 -15 4 3 5 11 1 19 -7 21 -12 19 -10 -4z"/>
<path d="M3090 3311 c0 -6 4 -13 10 -16 6 -3 7 1 4 9 -7 18 -14 21 -14 7z"/>
<path d="M3115 3310 c3 -5 8 -10 11 -10 2 0 4 5 4 10 0 6 -5 10 -11 10 -5 0
-7 -4 -4 -10z"/>
<path d="M893 3285 c0 -8 4 -12 9 -9 5 3 6 10 3 15 -9 13 -12 11 -12 -6z"/>
<path d="M2933 3288 c-3 -6 -1 -8 5 -4 5 3 12 2 14 -4 2 -5 9 -6 16 -1 10 6 9
10 -7 14 -12 3 -24 0 -28 -5z"/>
<path d="M3030 3290 c0 -5 5 -10 10 -10 6 0 10 5 10 10 0 6 -4 10 -10 10 -5 0
-10 -4 -10 -10z"/>
<path d="M1135 3279 c-4 -6 -5 -12 -2 -15 2 -3 7 2 10 11 7 17 1 20 -8 4z"/>
<path d="M3192 3285 c4 -4 1 -13 -7 -19 -13 -9 -10 -11 12 -12 16 -1 22 1 15
3 -6 3 -10 9 -7 13 3 5 0 12 -7 16 -7 4 -10 4 -6 -1z"/>
<path d="M1096 3272 c-3 -5 1 -9 9 -9 8 0 12 4 9 9 -3 4 -7 8 -9 8 -2 0 -6 -4
-9 -8z"/>
<path d="M1157 3262 c-16 -18 -16 -19 3 -17 11 1 23 5 27 10 5 4 2 4 -6 0 -11
-6 -13 -4 -8 8 8 22 4 21 -16 -1z"/>
<path d="M1205 3269 c-4 -6 -5 -12 -2 -15 2 -3 7 2 10 11 7 17 1 20 -8 4z"/>
<path d="M3060 3268 c0 -4 7 -8 15 -8 8 0 15 4 15 8 0 5 -7 9 -15 9 -8 0 -15
-4 -15 -9z"/>
<path d="M3130 3276 c0 -2 7 -7 16 -10 8 -3 12 -2 9 4 -6 10 -25 14 -25 6z"/>
<path d="M1066 3252 c-3 -5 1 -9 9 -9 8 0 12 4 9 9 -3 4 -7 8 -9 8 -2 0 -6 -4
-9 -8z"/>
<path d="M3036 3245 c-9 -26 -7 -32 5 -12 6 10 9 21 6 23 -2 3 -7 -2 -11 -11z"/>
<path d="M3096 3251 c-3 -5 2 -15 12 -22 16 -13 16 -13 2 5 -14 18 -13 19 3
13 9 -3 17 -2 17 3 0 12 -27 13 -34 1z"/>
<path d="M1112 3236 c7 -8 15 -12 17 -11 5 6 -10 25 -20 25 -5 0 -4 -6 3 -14z"/>
<path d="M1234 3239 c-3 -6 -2 -15 3 -20 5 -5 9 -1 9 11 0 23 -2 24 -12 9z"/>
<path d="M1313 3235 c0 -8 4 -12 9 -9 5 3 6 10 3 15 -9 13 -12 11 -12 -6z"/>
<path d="M885 3229 c-3 -4 2 -6 10 -5 21 3 28 13 10 13 -9 0 -18 -4 -20 -8z"/>
<path d="M3060 3230 c0 -6 4 -9 9 -6 5 4 12 1 14 -4 3 -6 4 -5 3 2 -3 15 -26
23 -26 8z"/>
<path d="M3276 3223 c-6 -14 -5 -15 5 -6 7 7 10 15 7 18 -3 3 -9 -2 -12 -12z"/>
<path d="M1094 3209 c-4 -7 -3 -9 4 -5 5 3 13 0 15 -6 4 -9 6 -10 6 -1 1 17
-16 25 -25 12z"/>
<path d="M1140 3216 c0 -2 8 -10 18 -17 15 -13 16 -12 3 4 -13 16 -21 21 -21
13z"/>
<path d="M3115 3210 c-17 -8 -17 -9 7 -7 15 1 24 5 22 9 -3 4 -6 8 -7 7 -1 0
-11 -4 -22 -9z"/>
<path d="M3190 3215 c0 -13 20 -35 32 -35 4 0 8 5 8 11 0 5 -4 8 -9 4 -6 -3
-14 3 -20 12 -6 10 -11 13 -11 8z"/>
<path d="M1013 3190 c-2 -23 13 -35 23 -19 5 8 3 9 -6 4 -10 -6 -12 -4 -7 8 3
9 3 18 -1 21 -4 3 -8 -4 -9 -14z"/>
<path d="M1071 3200 c0 -8 4 -22 9 -30 12 -18 12 -2 0 25 -6 13 -9 15 -9 5z"/>
<path d="M1213 3195 c0 -8 4 -12 9 -9 5 3 6 10 3 15 -9 13 -12 11 -12 -6z"/>
<path d="M3160 3196 c0 -2 8 -10 18 -17 15 -13 16 -12 3 4 -13 16 -21 21 -21
13z"/>
<path d="M855 3170 c-3 -5 -1 -10 4 -10 6 0 11 5 11 10 0 6 -2 10 -4 10 -3 0
-8 -4 -11 -10z"/>
<path d="M994 3157 c1 -17 6 -23 15 -19 10 4 12 1 6 -8 -6 -9 -4 -11 4 -6 9 6
8 13 -6 29 -10 12 -19 23 -19 25 -1 2 -1 -8 0 -21z"/>
<path d="M1054 3172 c3 -5 0 -13 -6 -15 -9 -4 -10 -6 -1 -6 17 -1 25 16 12 25
-7 4 -9 3 -5 -4z"/>
<path d="M3257 3146 c-4 -10 -1 -13 8 -9 8 3 12 9 9 14 -7 12 -11 11 -17 -5z"/>
<path d="M3998 3139 c-10 -5 -18 -7 -18 -3 0 11 -60 -47 -71 -68 -18 -33 -21
-100 -9 -159 14 -66 24 -75 27 -27 2 18 11 44 21 58 18 24 25 25 111 25 85 0
94 2 112 24 23 29 25 79 3 110 -31 43 -132 66 -176 40z"/>
<path d="M830 3126 c0 -2 8 -10 18 -17 15 -13 16 -12 3 4 -13 16 -21 21 -21
13z"/>
<path d="M3280 3116 c7 -7 13 -7 20 0 6 6 3 10 -10 10 -13 0 -16 -4 -10 -10z"/>
<path d="M873 3098 c-2 -18 0 -20 7 -8 12 18 13 30 2 30 -4 0 -9 -10 -9 -22z"/>
<path d="M980 3116 c0 -2 8 -10 18 -17 15 -13 16 -12 3 4 -13 16 -21 21 -21
13z"/>
<path d="M1030 3109 c0 -5 5 -7 10 -4 6 3 10 8 10 11 0 2 -4 4 -10 4 -5 0 -10
-5 -10 -11z"/>
<path d="M1175 3079 c-4 -6 -5 -12 -2 -15 2 -3 7 2 10 11 7 17 1 20 -8 4z"/>
<path d="M764 3068 c-4 -6 -3 -8 4 -4 5 3 13 0 15 -6 3 -8 6 -6 6 5 1 19 -14
23 -25 5z"/>
<path d="M874 3032 c3 -5 0 -13 -6 -15 -9 -4 -10 -6 -1 -6 17 -1 25 16 12 25
-7 4 -9 3 -5 -4z"/>
<path d="M1106 3032 c-2 -4 4 -8 14 -8 10 0 16 4 14 8 -3 4 -9 8 -14 8 -5 0
-11 -4 -14 -8z"/>
<path d="M773 3013 c4 -3 -1 -12 -11 -20 -15 -13 -15 -13 6 -3 19 9 23 30 5
30 -4 0 -3 -3 0 -7z"/>
<path d="M950 3006 c0 -2 8 -10 18 -17 15 -13 16 -12 3 4 -13 16 -21 21 -21
13z"/>
<path d="M800 2990 c-9 -6 -10 -10 -3 -10 6 0 15 5 18 10 8 12 4 12 -15 0z"/>
<path d="M870 2996 c0 -2 7 -7 16 -10 8 -3 12 -2 9 4 -6 10 -25 14 -25 6z"/>
<path d="M3516 2992 c-3 -5 1 -9 9 -9 8 0 12 4 9 9 -3 4 -7 8 -9 8 -2 0 -6 -4
-9 -8z"/>
<path d="M774 2972 c4 -7 2 -12 -5 -12 -8 0 -9 -3 0 -13 6 -8 9 -17 6 -20 -3
-4 -2 -5 2 -2 11 8 11 45 0 52 -6 3 -7 1 -3 -5z"/>
<path d="M1136 2968 c3 -5 10 -6 15 -3 13 9 11 12 -6 12 -8 0 -12 -4 -9 -9z"/>
<path d="M820 2950 c0 -5 7 -7 15 -4 8 4 15 8 15 10 0 2 -7 4 -15 4 -8 0 -15
-4 -15 -10z"/>
<path d="M1100 2956 c0 -2 8 -10 18 -17 15 -13 16 -12 3 4 -13 16 -21 21 -21
13z"/>
<path d="M875 2941 c-3 -5 -2 -12 3 -15 5 -3 9 1 9 9 0 17 -3 19 -12 6z"/>
<path d="M840 2920 c-6 -11 -7 -20 -2 -20 6 0 12 9 15 20 3 11 3 20 1 20 -2 0
-8 -9 -14 -20z"/>
<path d="M787 2900 c-3 -11 -3 -20 -1 -20 2 0 8 9 14 20 6 11 7 20 2 20 -6 0
-12 -9 -15 -20z"/>
<path d="M3985 2910 c-3 -6 1 -7 9 -4 18 7 21 14 7 14 -6 0 -13 -4 -16 -10z"/>
<path d="M812 2895 c4 -4 0 -13 -9 -20 -13 -10 -14 -13 -2 -20 8 -5 11 -5 7 0
-4 4 0 13 9 20 13 10 14 13 2 20 -8 5 -11 5 -7 0z"/>
<path d="M859 2898 c-9 -31 -6 -37 14 -27 32 17 35 22 8 14 -16 -5 -21 -4 -17
4 4 6 5 11 2 11 -3 0 -6 -1 -7 -2z"/>
<path d="M915 2889 c-3 -4 2 -6 10 -5 21 3 28 13 10 13 -9 0 -18 -4 -20 -8z"/>
<path d="M3956 2877 c3 -10 9 -15 12 -12 3 3 0 11 -7 18 -10 9 -11 8 -5 -6z"/>
<path d="M955 2871 c-3 -5 -2 -12 3 -15 5 -3 9 1 9 9 0 17 -3 19 -12 6z"/>
<path d="M1072 2857 c-8 -10 -6 -13 11 -14 12 0 16 1 9 4 -6 3 -10 9 -6 14 8
14 -2 11 -14 -4z"/>
<path d="M866 2851 c-3 -4 6 -7 19 -7 14 0 22 2 19 5 -8 8 -34 10 -38 2z"/>
<path d="M934 2842 c-9 -5 -8 -10 1 -19 11 -10 13 -9 12 7 -1 11 -1 20 -2 20
0 0 -5 -4 -11 -8z"/>
<path d="M1004 2829 c-3 -6 -2 -15 4 -21 6 -6 12 -6 17 3 5 8 4 10 -3 5 -7 -4
-12 -3 -12 3 0 5 6 12 13 14 9 4 9 6 0 6 -6 1 -15 -4 -19 -10z"/>
<path d="M880 2819 c0 -5 -6 -7 -12 -3 -7 4 -9 3 -5 -1 13 -15 36 -14 30 1 -6
17 -13 18 -13 3z"/>
<path d="M975 2809 c-4 -6 -5 -12 -2 -15 2 -3 7 2 10 11 7 17 1 20 -8 4z"/>
<path d="M4119 2818 c-7 -23 -4 -35 7 -35 9 0 11 4 4 12 -5 7 -7 15 -3 18 3 4
3 7 0 7 -4 0 -7 -1 -8 -2z"/>
<path d="M4175 2810 c-3 -5 -1 -10 4 -10 6 0 11 5 11 10 0 6 -2 10 -4 10 -3 0
-8 -4 -11 -10z"/>
<path d="M854 2785 c1 -8 6 -18 11 -22 4 -4 5 -3 2 4 -4 6 -2 13 5 15 8 3 6 6
-4 10 -10 4 -15 2 -14 -7z"/>
<path d="M911 2797 c2 -2 11 -8 20 -15 12 -9 16 -9 16 1 0 7 -9 14 -20 14 -11
1 -18 1 -16 0z"/>
<path d="M886 2772 c-3 -5 1 -9 9 -9 8 0 12 4 9 9 -3 4 -7 8 -9 8 -2 0 -6 -4
-9 -8z"/>
<path d="M4055 2770 c3 -5 8 -10 11 -10 2 0 4 5 4 10 0 6 -5 10 -11 10 -5 0
-7 -4 -4 -10z"/>
<path d="M131 2674 c-171 -86 -171 -369 -1 -368 73 1 121 55 142 158 16 81 48
116 108 118 25 1 63 -2 85 -6 l40 -7 -64 45 c-124 88 -217 106 -310 60z"/>
<path d="M4195 2679 c-4 -6 -5 -12 -2 -15 2 -3 7 2 10 11 7 17 1 20 -8 4z"/>
<path d="M4227 2609 c7 -7 15 -10 18 -7 3 3 -2 9 -12 12 -14 6 -15 5 -6 -5z"/>
<path d="M3995 2590 c-3 -5 -1 -10 4 -10 6 0 11 5 11 10 0 6 -2 10 -4 10 -3 0
-8 -4 -11 -10z"/>
<path d="M4090 2570 c0 -5 5 -10 11 -10 5 0 7 5 4 10 -3 6 -8 10 -11 10 -2 0
-4 -4 -4 -10z"/>
<path d="M4170 2569 c0 -5 5 -7 10 -4 6 3 10 8 10 11 0 2 -4 4 -10 4 -5 0 -10
-5 -10 -11z"/>
<path d="M4133 2555 c0 -8 4 -15 9 -15 4 0 8 4 8 9 0 6 -4 12 -8 15 -5 3 -9
-1 -9 -9z"/>
<path d="M4090 2529 c0 -5 5 -7 10 -4 6 3 10 8 10 11 0 2 -4 4 -10 4 -5 0 -10
-5 -10 -11z"/>
<path d="M3993 2477 c0 -8 6 -14 14 -14 9 0 10 4 2 14 -6 7 -12 13 -14 13 -1
0 -2 -6 -2 -13z"/>
<path d="M3907 2429 c7 -7 15 -10 18 -7 3 3 -2 9 -12 12 -14 6 -15 5 -6 -5z"/>
<path d="M3985 2430 c-3 -6 1 -7 9 -4 18 7 21 14 7 14 -6 0 -13 -4 -16 -10z"/>
<path d="M3975 2370 c-3 -5 -1 -10 4 -10 6 0 11 5 11 10 0 6 -2 10 -4 10 -3 0
-8 -4 -11 -10z"/>
<path d="M4311 1622 c-37 -6 -95 -46 -130 -90 -38 -49 -39 -54 -3 -36 66 32
108 22 137 -33 55 -102 173 -113 191 -18 18 95 -93 196 -195 177z"/>
<path d="M299 1496 c-40 -23 -62 -64 -62 -115 0 -36 5 -49 27 -68 15 -13 36
-23 47 -23 21 0 58 33 60 53 0 6 2 32 4 56 3 51 22 71 69 72 l31 1 -33 14
c-51 22 -113 27 -143 10z"/>
</g>
</svg>
